<svg width="60" height="60" viewBox="0 0 60 60" fill="none" xmlns="http://www.w3.org/2000/svg">
<path d="M30 59.0625C46.0508 59.0625 59.0625 46.0508 59.0625 30C59.0625 13.9492 46.0508 0.9375 30 0.9375C13.9492 0.9375 0.9375 13.9492 0.9375 30C0.9375 46.0508 13.9492 59.0625 30 59.0625Z" fill="#30BF39"/>
<path d="M38.8125 32.6265C38.4375 32.439 36.4688 31.314 36.0938 31.2202C35.7188 31.0327 35.4375 31.0327 35.1563 31.4077C34.875 31.7827 34.0313 32.7202 33.8438 32.9077C33.5625 33.189 33.375 33.189 33 33.0015C32.625 32.814 31.3125 32.3452 29.8125 30.8452C28.6875 29.7202 27.8438 28.4077 27.6563 27.939C27.4688 27.564 27.6563 27.2827 27.8438 27.0952C28.0313 26.9077 28.2188 26.6265 28.5 26.439C28.7813 26.2515 28.7813 26.064 28.9688 25.7827C29.1563 25.5015 29.0625 25.314 28.9688 25.0327C28.875 24.7515 28.125 22.7827 27.8438 21.939C27.5625 21.0952 27.1875 21.2827 27 21.189C26.7188 21.189 26.5313 21.0952 26.25 21.0952C25.875 21.0952 25.4063 21.2827 25.125 21.564C24.75 21.939 23.625 22.8765 23.625 24.8452C23.625 26.814 24.9375 28.8765 25.125 29.064C25.3125 29.3452 27.75 33.6577 31.7813 35.439C35.8125 37.2202 35.8125 36.6577 36.5625 36.6577C37.3125 36.6577 39 35.7202 39.375 34.8765C39.75 33.939 39.75 33.0952 39.6563 33.0015C39.4688 33.0015 39.1875 32.9077 38.8125 32.6265ZM31.3125 42.2827C28.6875 42.2827 26.25 41.5327 24.0938 40.1265L19.0312 41.7202L20.7188 36.8452C19.125 34.5952 18.1875 31.8765 18.1875 29.064C18.1875 21.7515 24.0938 15.8452 31.4063 15.8452C38.7188 15.8452 44.5313 21.7515 44.5313 29.064C44.5313 36.3765 38.625 42.2827 31.3125 42.2827ZM31.3125 13.2202C22.5938 13.2202 15.4688 20.3452 15.4688 29.064C15.4688 31.9702 16.2187 34.7827 17.7188 37.2202L14.8125 45.7515L23.625 42.939C25.9688 44.2515 28.5938 44.9077 31.3125 44.9077C40.0313 44.9077 47.1563 37.7827 47.1563 29.064C47.1563 20.3452 40.125 13.2202 31.3125 13.2202Z" fill="white"/>
</svg>
